<svg width="60" height="60" viewBox="0 0 60 60" fill="none" xmlns="http://www.w3.org/2000/svg">
<g filter="url(#filter0_d_152_807)">
<rect x="10" y="9" width="40" height="40" fill="white"/>
</g>
<path d="M31.3099 37.3999C29.9876 37.6065 28.6352 37.4979 27.3628 37.0829C26.0904 36.668 24.934 35.9585 23.9877 35.0122C23.0413 34.0658 22.3318 32.9094 21.9169 31.637C21.502 30.3646 21.3934 29.0122 21.5999 27.6899C21.0786 26.6984 20.8882 25.5662 21.0563 24.4587C21.2245 23.3513 21.7424 22.3266 22.5345 21.5345C23.3266 20.7424 24.3513 20.2245 25.4587 20.0563C26.5662 19.8882 27.6984 20.0786 28.6899 20.5999C30.0122 20.3934 31.3646 20.502 32.637 20.9169C33.9094 21.3318 35.0658 22.0413 36.0122 22.9877C36.9585 23.934 37.668 25.0904 38.0829 26.3628C38.4979 27.6352 38.6065 28.9876 38.3999 30.3099C38.9212 31.3014 39.1117 32.4336 38.9435 33.5411C38.7754 34.6486 38.2574 35.6732 37.4653 36.4653C36.6732 37.2574 35.6486 37.7754 34.5411 37.9435C33.4336 38.1117 32.3014 37.9212 31.3099 37.3999ZM30.0519 34.1559H30.0119C32.8839 34.1559 34.3149 32.7699 34.3149 30.9129C34.3149 29.7149 33.7639 28.4419 31.5889 27.9549L29.6059 27.5149C28.8509 27.3429 27.9839 27.1149 27.9839 26.3999C27.9839 25.6849 28.6039 25.1869 29.7079 25.1869C31.9379 25.1869 31.7349 26.7149 32.8389 26.7149C33.4149 26.7149 33.9319 26.3729 33.9319 25.7849C33.9319 24.4149 31.7349 23.3849 29.8759 23.3849C27.8549 23.3849 25.7029 24.2439 25.7029 26.5289C25.7029 27.6269 26.0969 28.7989 28.2629 29.3419L30.9519 30.0129C31.7679 30.2149 31.9699 30.6719 31.9699 31.0849C31.9699 31.7719 31.2859 32.4429 30.0519 32.4429C27.6349 32.4429 27.9739 30.5859 26.6779 30.5859C26.0979 30.5859 25.6749 30.9839 25.6749 31.5569C25.6749 32.6709 27.0269 34.1549 30.0519 34.1549V34.1559Z" fill="#FF5300"/>
<defs>
<filter id="filter0_d_152_807" x="0" y="0" width="60" height="60" filterUnits="userSpaceOnUse" color-interpolation-filters="sRGB">
<feFlood flood-opacity="0" result="BackgroundImageFix"/>
<feColorMatrix in="SourceAlpha" type="matrix" values="0 0 0 0 0 0 0 0 0 0 0 0 0 0 0 0 0 0 127 0" result="hardAlpha"/>
<feOffset dy="1"/>
<feGaussianBlur stdDeviation="5"/>
<feColorMatrix type="matrix" values="0 0 0 0 0 0 0 0 0 0 0 0 0 0 0 0 0 0 0.1 0"/>
<feBlend mode="normal" in2="BackgroundImageFix" result="effect1_dropShadow_152_807"/>
<feBlend mode="normal" in="SourceGraphic" in2="effect1_dropShadow_152_807" result="shape"/>
</filter>
</defs>
</svg>
